<svg width="40" height="40" viewBox="0 0 40 40" fill="none" xmlns="http://www.w3.org/2000/svg">
<path d="M25.7757 35.4949C25.6482 36.1264 25.4243 36.7058 25.1004 37.2364C24.7663 37.78 24.3287 38.2715 23.7913 38.7012C23.2504 39.1309 22.6648 39.4564 22.0274 39.6745C21.3901 39.8926 20.7149 40 20.0017 40C19.2851 40 18.6099 39.8893 17.976 39.6745C17.3421 39.4564 16.753 39.1341 16.2156 38.7012C15.6747 38.2683 15.2406 37.78 14.9064 37.2364C14.5723 36.6928 14.3449 36.0939 14.2209 35.4363C14.1589 35.1173 14.3862 34.8114 14.7239 34.7528C14.7342 34.7528 14.8341 34.743 14.8341 34.743H25.1762C25.5208 34.743 25.8032 35.0067 25.8032 35.3354C25.7998 35.3908 25.7895 35.4428 25.7757 35.4949ZM6.96207 0.0825781C7.59252 -0.155045 8.30566 0.137915 8.55715 0.7336C8.80864 1.32929 8.49858 2.00309 7.86813 2.24072C6.50388 2.75502 5.36011 3.46789 4.44716 4.39234C3.53766 5.3168 2.85209 6.46259 2.40422 7.83951C2.20441 8.45147 1.51539 8.79651 0.867716 8.60771C0.22004 8.41892 -0.145139 7.76789 0.0546755 7.15593C0.616224 5.43072 1.48439 3.98546 2.64538 2.80711C3.80637 1.63201 5.24986 0.72709 6.96207 0.0825781ZM32.1319 2.24072C31.5014 2.00309 31.1914 1.32929 31.4429 0.7336C31.6943 0.137915 32.4075 -0.155045 33.0379 0.0825781C34.7501 0.72709 36.1936 1.63201 37.3546 2.81036C38.5156 3.99197 39.3872 5.43723 39.9453 7.15919C40.1451 7.77115 39.78 8.42217 39.1323 8.61097C38.4846 8.79976 37.7956 8.45472 37.5958 7.84276C37.1479 6.46259 36.4623 5.3168 35.5528 4.3956C34.6399 3.46789 33.4961 2.75502 32.1319 2.24072ZM24.7732 3.8878C25.476 4.15147 26.1512 4.46721 26.7989 4.83504C26.823 4.85132 26.8506 4.86434 26.8747 4.88061C27.4948 5.24193 28.0736 5.63905 28.6041 6.06873C29.7375 6.98992 30.6815 8.07062 31.4291 9.29454C31.8011 9.9065 32.1215 10.5445 32.3868 11.202C32.659 11.8824 32.8622 12.5757 33 13.2886C33.1344 14.0047 33.2033 14.7371 33.2033 15.489C33.2033 16.9733 33.2033 17.7774 33.2033 17.875C33.2067 18.6367 33.2102 19.3821 33.2171 20.108V20.1145C33.2205 20.7721 33.2653 21.4328 33.3514 22.0936C33.4376 22.7479 33.5616 23.3794 33.7235 23.9881C33.8854 24.5871 34.1059 25.1665 34.3781 25.7198C34.6606 26.2895 35.0051 26.8494 35.4081 27.393H35.4116C35.8112 27.9268 36.3108 28.4574 36.9102 28.9782C37.5303 29.5153 38.2469 30.0459 39.0668 30.5602C39.5354 30.8564 39.6628 31.4586 39.3459 31.9013C39.1495 32.178 38.8257 32.331 38.4949 32.331V32.3342H29.2449H20.0017H10.7517H1.50506C0.936617 32.3342 0.478421 31.9013 0.478421 31.3642C0.478421 31.0126 0.678236 30.7034 0.974513 30.5341C1.80478 30.0036 2.51791 29.4762 3.11391 28.9554C3.70647 28.4378 4.20256 27.9073 4.60219 27.3604C4.61252 27.3441 4.6263 27.3279 4.64008 27.3148C5.02593 26.781 5.35666 26.2374 5.62882 25.684C5.90788 25.1209 6.13181 24.5415 6.29717 23.9458C6.30062 23.9328 6.30406 23.9198 6.30751 23.91C6.46598 23.3306 6.58656 22.7186 6.66924 22.0774C6.75192 21.4328 6.79671 20.7656 6.79671 20.0787V15.489C6.79671 14.7501 6.86561 14.0177 7.00686 13.2853C7.14811 12.5562 7.35137 11.8563 7.62353 11.189C7.89225 10.5217 8.21608 9.88046 8.5916 9.2685C9.34952 8.03156 10.29 6.96063 11.4407 6.03292C12.0022 5.58046 12.6086 5.16706 13.2597 4.79923C13.9177 4.42815 14.5998 4.11566 15.3026 3.86176C15.7918 3.68599 16.2983 3.53951 16.815 3.41907C16.9907 2.8364 17.2939 2.36441 17.7245 2.00309C18.3171 1.50506 19.0957 1.25767 20.0637 1.26744C21.0215 1.27395 21.7966 1.52459 22.3823 2.02262C24.4528 3.76411 21.8758 2.80711 24.7732 3.8878Z" fill="#FF0900"/>
</svg>
