<svg width="40" height="40" viewBox="0 0 40 40" fill="none" xmlns="http://www.w3.org/2000/svg">
<g clip-path="url(#clip0_1_24)">
<path d="M20 10.5097L5.73421 22.2703C5.73421 22.2869 5.73004 22.3113 5.7217 22.3446C5.71353 22.3776 5.70918 22.4016 5.70918 22.4187V34.3276C5.70918 34.7576 5.86639 35.1302 6.1807 35.444C6.49494 35.758 6.86704 35.9159 7.29711 35.9159H16.824V26.3885H23.1762V35.9163H32.703C33.133 35.9163 33.5056 35.7587 33.8194 35.444C34.1337 35.1305 34.2914 34.7577 34.2914 34.3276V22.4187C34.2914 22.3526 34.2824 22.3027 34.2664 22.2703L20 10.5097Z" fill="white"/>
<path d="M39.7241 19.5907L34.2909 15.0751V4.95237C34.2909 4.72095 34.2165 4.53064 34.0672 4.3817C33.9191 4.23292 33.7288 4.15854 33.4969 4.15854H28.7334C28.5017 4.15854 28.3115 4.23292 28.1624 4.3817C28.0137 4.53064 27.9394 4.72104 27.9394 4.95237V9.79038L21.8858 4.72886C21.3571 4.29879 20.7284 4.0838 20.0006 4.0838C19.2728 4.0838 18.6442 4.29879 18.115 4.72886L0.275651 19.5907C0.110279 19.7227 0.0196422 19.9005 0.00278348 20.1239C-0.0139883 20.347 0.0438005 20.542 0.176324 20.7072L1.71455 22.5433C1.84707 22.692 2.02052 22.783 2.2356 22.8163C2.43417 22.833 2.63274 22.7749 2.83131 22.6427L20 8.32654L37.169 22.6426C37.3016 22.758 37.4749 22.8156 37.69 22.8156H37.7646C37.9793 22.7829 38.1524 22.6914 38.2856 22.5429L39.824 20.7072C39.9563 20.5415 40.0143 20.347 39.997 20.1235C39.9801 19.9008 39.8891 19.723 39.7241 19.5907Z" fill="white"/>
</g>
<defs>
<clipPath id="clip0_1_24">
<rect width="40.0001" height="40" fill="white"/>
</clipPath>
</defs>
</svg>
