<svg width="40" height="40" viewBox="0 0 40 40" fill="none" xmlns="http://www.w3.org/2000/svg">
<g clip-path="url(#clip0_1_32)">
<path fill-rule="evenodd" clip-rule="evenodd" d="M20.0001 0C8.96009 0 9.15527e-05 8.96 9.15527e-05 20C9.15527e-05 31.04 8.96009 40 20.0001 40C31.0401 40 40.0001 31.04 40.0001 20C40.0001 8.96 31.0401 0 20.0001 0ZM28.0001 22H22.0001V28C22.0001 29.1 21.1001 30 20.0001 30C18.9001 30 18.0001 29.1 18.0001 28V22H12.0001C10.9001 22 10.0001 21.1 10.0001 20C10.0001 18.9 10.9001 18 12.0001 18H18.0001V12C18.0001 10.9 18.9001 10 20.0001 10C21.1001 10 22.0001 10.9 22.0001 12V18H28.0001C29.1001 18 30.0001 18.9 30.0001 20C30.0001 21.1 29.1001 22 28.0001 22Z" fill="white"/>
</g>
<defs>
<clipPath id="clip0_1_32">
<rect width="40" height="40" fill="white"/>
</clipPath>
</defs>
</svg>
