<svg width="40" height="40" viewBox="0 0 40 40" fill="none" xmlns="http://www.w3.org/2000/svg">
<path d="M39.4286 4.57143C39 4.28571 38.5714 4.14286 38.1429 4.42857C32 6.42857 25.7143 4.85714 21 0.428571C20.4286 -0.142857 19.5714 -0.142857 19 0.428571C14.2857 4.85714 8 6.42857 1.85714 4.42857C1.42857 4.14286 1 4.28571 0.571429 4.57143C0.285714 4.85714 0 5.28571 0 5.71429C0 28.1429 9.85714 35.5714 19.4286 39.8571C19.5714 40 19.8571 40 20 40C20.1429 40 20.4286 40 20.5714 39.8571C30.1429 35.5714 40 28.1429 40 5.71429C40 5.28571 39.7143 4.85714 39.4286 4.57143ZM28.1429 16.7143L19.5714 25.2857C19.2857 25.5714 19 25.7143 18.5714 25.7143C18.1429 25.7143 17.8571 25.5714 17.5714 25.2857L13.2857 21C12.7143 20.4286 12.7143 19.5714 13.2857 19C13.8571 18.4286 14.7143 18.4286 15.2857 19L18.5714 22.2857L26.1429 14.7143C26.7143 14.1429 27.5714 14.1429 28.1429 14.7143C28.7143 15.2857 28.7143 16.1429 28.1429 16.7143Z" fill="white"/>
</svg>
