<svg width="45" height="30" viewBox="0 0 45 30" fill="none" xmlns="http://www.w3.org/2000/svg">
<g clip-path="url(#clip0_1_44)">
<path fill-rule="evenodd" clip-rule="evenodd" d="M2.5 30H42.5C43.875 30 45 28.875 45 27.5C45 26.125 43.875 25 42.5 25H2.5C1.125 25 0 26.125 0 27.5C0 28.875 1.125 30 2.5 30ZM2.5 17.5H42.5C43.875 17.5 45 16.375 45 15C45 13.625 43.875 12.5 42.5 12.5H2.5C1.125 12.5 0 13.625 0 15C0 16.375 1.125 17.5 2.5 17.5ZM0 2.5C0 3.875 1.125 5 2.5 5H42.5C43.875 5 45 3.875 45 2.5C45 1.125 43.875 0 42.5 0H2.5C1.125 0 0 1.125 0 2.5Z" fill="white"/>
</g>
<defs>
<clipPath id="clip0_1_44">
<rect width="45" height="30" fill="white"/>
</clipPath>
</defs>
</svg>
